<?xml version="1.0" encoding="UTF-8"?>
<!-- Generator: Adobe Illustrator 24.2.1, SVG Export Plug-In . SVG Version: 6.00 Build 0)  -->
<svg preserveAspectRatio="xMidYMid slice" width="344px" height="380px" xmlns="http://www.w3.org/2000/svg" xmlns:xlink="http://www.w3.org/1999/xlink" version="1.1" id="Layer_1" x="0px" y="0px" viewBox="0 0 40 44.3" style="enable-background:new 0 0 40 44.3;" xml:space="preserve">
<style type="text/css">
	.st0{fill:#0070AF;}
	.st1{fill-rule:evenodd;clip-rule:evenodd;fill:#0070AF;}
	.st2{fill:#FFFFFF;}
</style>
<g>
	<path class="st0" d="M37.8,31.8h-1.2c-0.5,0.8-1,1.6-1.6,2.4c-0.4,0.6-1,1.1-1.4,1.5c-3.3,3.3-7.8,5.3-12.7,5.6l0,0   c-0.1,0-0.2,0-0.4,0.1l-0.2,0c-1.1,0-2.3-0.1-3.5-0.4v1c1,0.2,2.2,0.3,3.5,0.3C27.6,42.3,34.4,38.2,37.8,31.8z"></path>
	<polygon class="st0" points="25.7,4.5 25.7,4.5 25.7,4.5  "></polygon>
	<path class="st0" d="M20.2,1.8h-0.4c-7.6,0-14.5,4.5-17.7,11.5h1.2c0.9-1.8,2.1-3.5,3.5-4.9c3.5-3.6,8.2-5.6,13.1-5.6   c1.9,0,3.9,0.3,5.9,1l0.1-1.9h0l-0.2,0.7C23.9,2,22,1.8,20.2,1.8z"></path>
</g>
<circle class="st1" cx="20" cy="22.1" r="7.7"></circle>
<path class="st2" d="M25.5,2.4l0.8,0.4L26.6,2c0,0-0.7-1.1-0.7-0.6S25.5,2.4,25.5,2.4z"></path>
</svg>
